<svg xmlns="http://www.w3.org/2000/svg" width="431" height="431" viewBox="0 0 431 431"><g id="incubator-image" transform="translate(-1021 -260)"><circle id="Ellipse_52" data-name="Ellipse 52" cx="215.5" cy="215.5" r="215.5" transform="translate(1021 260)" fill="#d2a8ff"></circle><g id="bulb-63" transform="translate(1104.492 338.03)"><path id="Line_11" data-name="Line 11" d="M25.878,7.5H0A7.5,7.5,0,0,1-7.5,0,7.5,7.5,0,0,1,0-7.5H25.878a7.5,7.5,0,0,1,7.5,7.5A7.5,7.5,0,0,1,25.878,7.5Z" transform="translate(0 131.741)" fill="#fff"></path><path id="Line_12" data-name="Line 12" d="M18.593,26.093a7.477,7.477,0,0,1-5.3-2.2L-5.3,5.3A7.5,7.5,0,0,1-5.3-5.3,7.5,7.5,0,0,1,5.3-5.3L23.9,13.29a7.5,7.5,0,0,1-5.3,12.8Z" transform="translate(38.144 38.748)" fill="#fff"></path><path id="Line_13" data-name="Line 13" d="M0,33.378a7.5,7.5,0,0,1-7.5-7.5V0A7.5,7.5,0,0,1,0-7.5,7.5,7.5,0,0,1,7.5,0V25.878A7.5,7.5,0,0,1,0,33.378Z" transform="translate(131.741 0)" fill="#fff"></path><path id="Line_14" data-name="Line 14" d="M0,26.093a7.477,7.477,0,0,1-5.3-2.2,7.5,7.5,0,0,1,0-10.607L13.29-5.3A7.5,7.5,0,0,1,23.9-5.3,7.5,7.5,0,0,1,23.9,5.3L5.3,23.9A7.477,7.477,0,0,1,0,26.093Z" transform="translate(205.506 38.748)" fill="#fff"></path><path id="Line_15" data-name="Line 15" d="M28.23,7.5H0A7.5,7.5,0,0,1-7.5,0,7.5,7.5,0,0,1,0-7.5H28.23A7.5,7.5,0,0,1,35.73,0,7.5,7.5,0,0,1,28.23,7.5Z" transform="translate(235.251 131.741)" fill="#fff"></path><path id="Line_16" data-name="Line 16" d="M61.165,7.5H0A7.5,7.5,0,0,1-7.5,0,7.5,7.5,0,0,1,0-7.5H61.165a7.5,7.5,0,0,1,7.5,7.5A7.5,7.5,0,0,1,61.165,7.5Z" transform="translate(101.158 263.481)" fill="#fff"></path><path id="Path_179" data-name="Path 179" d="M89.512,7.5a81.976,81.976,0,0,1,38.181,154.537v32.669a7.5,7.5,0,0,1-7.5,7.5H58.831a7.5,7.5,0,0,1-7.5-7.5V162.037A81.976,81.976,0,0,1,89.512,7.5Zm23.181,179.705V157.362a7.5,7.5,0,0,1,4.4-6.831,67.012,67.012,0,1,0-55.172,0,7.5,7.5,0,0,1,4.4,6.831v29.844Z" transform="translate(41.61 42.214)" fill="#fff"></path></g></g></svg>