<svg xmlns="http://www.w3.org/2000/svg" width="500.000000pt" height="500.000000pt" viewBox="0 0 500.000000 500.000000" preserveAspectRatio="xMidYMid meet"><g transform="translate(0.000000,500.000000) scale(0.100000,-0.100000)" fill="#000000" stroke="none"><path d="M3204 4135 c-4 -9 8 -33 29 -58 83 -101 410 -440 909 -943 296 -297 538 -544 538 -547 0 -4 -829 -7 -1842 -7 -1761 0 -2444 -8 -2663 -30 -101 -10 -135 -23 -93 -33 124 -31 1118 -46 3068 -47 l1535 0 -431 -432 c-481 -484 -663 -671 -808 -833 -107 -118 -226 -265 -226 -277 0 -16 23 -7 64 24 177 137 502 447 1136 1082 l495 497 -680 677 c-676 673 -869 859 -954 913 -51 33 -69 36 -77 14z"></path></g></svg>