<svg xmlns="http://www.w3.org/2000/svg" width="800.000000pt" height="800.000000pt" viewBox="0 0 800.000000 800.000000" preserveAspectRatio="xMidYMid meet"><g transform="translate(0.000000,800.000000) scale(0.100000,-0.100000)" fill="#000000" stroke="none"><path d="M5130 6626 c-9 -12 -8 -22 4 -48 41 -87 523 -588 1874 -1951 261 -263 471 -481 468 -485 -4 -4 -1399 -10 -3099 -14 -2920 -6 -3653 -13 -3992 -38 -308 -23 -371 -57 -144 -79 386 -38 1406 -51 4483 -58 l2768 -6 -669 -671 c-916 -918 -1154 -1165 -1403 -1451 -129 -149 -270 -327 -270 -342 0 -113 753 590 2270 2120 l444 448 -300 300 c-534 536 -1876 1860 -2024 1998 -215 199 -336 291 -383 291 -8 0 -20 -6 -27 -14z"></path></g></svg>