<svg xmlns="http://www.w3.org/2000/svg" width="119.415" height="111.456" viewBox="0 0 119.415 111.456"><g id="conference" transform="translate(-1 -3)"><path id="Path_212" data-name="Path 212" d="M22.9,65.95a2,2,0,0,1-2-2V56H5v7.95a2,2,0,0,1-4,0V54a2,2,0,0,1,2-2H22.9a2,2,0,0,1,2,2v9.95A2,2,0,0,1,22.9,65.95Z" transform="translate(0 48.506)"></path><path id="Path_213" data-name="Path 213" d="M54.9,65.95a2,2,0,0,1-2-2V56H37v7.95a2,2,0,0,1-4,0V54a2,2,0,0,1,2-2H54.9a2,2,0,0,1,2,2v9.95A2,2,0,0,1,54.9,65.95Z" transform="translate(31.677 48.506)"></path><path id="Path_214" data-name="Path 214" d="M70.9,65.95a2,2,0,0,1-2-2V56H53v7.95a2,2,0,0,1-4,0V54a2,2,0,0,1,2-2H70.9a2,2,0,0,1,2,2v9.95A2,2,0,0,1,70.9,65.95Z" transform="translate(47.516 48.506)"></path><path id="Path_215" data-name="Path 215" d="M38.9,65.95a2,2,0,0,1-2-2V56H21v7.95a2,2,0,0,1-4,0V54a2,2,0,0,1,2-2H38.9a2,2,0,0,1,2,2v9.95A2,2,0,0,1,38.9,65.95Z" transform="translate(15.839 48.506)"></path><path id="Path_216" data-name="Path 216" d="M46.9,54.95a2,2,0,0,1-2-2V45H29v7.95a2,2,0,0,1-4,0V43a2,2,0,0,1,2-2H46.9a2,2,0,0,1,2,2v9.95A2,2,0,0,1,46.9,54.95Z" transform="translate(23.758 37.617)"></path><path id="Path_217" data-name="Path 217" d="M30.9,54.95a2,2,0,0,1-2-2V45H13v7.95a2,2,0,1,1-4,0V43a2,2,0,0,1,2-2H30.9a2,2,0,0,1,2,2v9.95A2,2,0,0,1,30.9,54.95Z" transform="translate(7.919 37.617)"></path><path id="Path_218" data-name="Path 218" d="M62.9,54.95a2,2,0,0,1-2-2V45H45v7.95a2,2,0,0,1-4,0V43a2,2,0,0,1,2-2H62.9a2,2,0,0,1,2,2v9.95A2,2,0,0,1,62.9,54.95Z" transform="translate(39.597 37.617)"></path><path id="Rectangle_134" data-name="Rectangle 134" d="M0-2H92.075a2,2,0,0,1,2,2V63.363a2,2,0,0,1-2,2H0a2,2,0,0,1-2-2V0A2,2,0,0,1,0-2ZM90.075,2H2V61.363H90.075Z" transform="translate(14.881 5)"></path><path id="Line_22" data-name="Line 22" d="M67.323,2H0A2,2,0,0,1-2,0,2,2,0,0,1,0-2H67.323a2,2,0,0,1,2,2A2,2,0,0,1,67.323,2Z" transform="translate(26.761 56.483)"></path></g></svg>