<svg xmlns="http://www.w3.org/2000/svg" width="116" height="116" viewBox="0 0 116 116"><g id="incubator" transform="translate(1.843 2.1)"><path id="Line_11" data-name="Line 11" d="M11,2H0A2,2,0,0,1-2,0,2,2,0,0,1,0-2H11a2,2,0,0,1,2,2A2,2,0,0,1,11,2Z" transform="translate(0.157 55.9)"></path><path id="Line_12" data-name="Line 12" d="M7.9,9.9a1.994,1.994,0,0,1-1.414-.586l-7.9-7.9a2,2,0,0,1,0-2.828,2,2,0,0,1,2.828,0l7.9,7.9A2,2,0,0,1,7.9,9.9Z" transform="translate(16.371 16.371)"></path><path id="Line_13" data-name="Line 13" d="M0,13a2,2,0,0,1-2-2V0A2,2,0,0,1,0-2,2,2,0,0,1,2,0V11A2,2,0,0,1,0,13Z" transform="translate(56.157 -0.1)"></path><path id="Line_14" data-name="Line 14" d="M0,9.9a1.994,1.994,0,0,1-1.414-.586,2,2,0,0,1,0-2.828l7.9-7.9a2,2,0,0,1,2.828,0,2,2,0,0,1,0,2.828l-7.9,7.9A1.994,1.994,0,0,1,0,9.9Z" transform="translate(87.513 16.371)"></path><path id="Line_15" data-name="Line 15" d="M12,2H0A2,2,0,0,1-2,0,2,2,0,0,1,0-2H12a2,2,0,0,1,2,2A2,2,0,0,1,12,2Z" transform="translate(100.157 55.9)"></path><path id="Line_16" data-name="Line 16" d="M26,2H0A2,2,0,0,1-2,0,2,2,0,0,1,0-2H26a2,2,0,0,1,2,2A2,2,0,0,1,26,2Z" transform="translate(43.157 111.9)"></path><path id="Path_179" data-name="Path 179" d="M46.673,13A33.658,33.658,0,0,1,61.715,76.777V91.389a2,2,0,0,1-2,2H33.631a2,2,0,0,1-2-2V76.777A33.656,33.656,0,0,1,46.673,13ZM57.715,89.389V75.515a2,2,0,0,1,1.175-1.822A29.78,29.78,0,0,0,71.478,62.942a29.673,29.673,0,1,0-49.61,0A29.78,29.78,0,0,0,34.457,73.693a2,2,0,0,1,1.175,1.822V89.389Z" transform="translate(9.221 9.221)"></path></g></svg>