<svg xmlns="http://www.w3.org/2000/svg" width="115.788" height="113.936" viewBox="0 0 115.788 113.936"><g id="lobbying" transform="translate(2 2)"><path id="Path_180" data-name="Path 180" d="M24.358,100.252a2,2,0,0,1-2-2V91.539L3.172,69.156A13.187,13.187,0,0,1,0,60.579V26.521a8.521,8.521,0,1,1,17.042,0V48.189a2,2,0,0,1-4,0V26.521a4.521,4.521,0,0,0-9.042,0V60.579a9.185,9.185,0,0,0,2.209,5.974L25.876,89.5a2,2,0,0,1,.482,1.3v7.453A2,2,0,0,1,24.358,100.252Z" transform="translate(-2 11.684)"></path><path id="Path_181" data-name="Path 181" d="M41.136,88.63a2,2,0,0,1-2-2V61.45a9.178,9.178,0,0,0-2.688-6.489L18.3,36.808A4.587,4.587,0,1,0,11.808,43.3L25.782,57.269,22.953,60.1,8.98,46.124A8.587,8.587,0,1,1,21.124,33.98L39.277,52.133a13.178,13.178,0,0,1,3.859,9.317V86.63A2,2,0,0,1,41.136,88.63Z" transform="translate(3.58 23.305)"></path><path id="Path_182" data-name="Path 182" d="M50,100.252a2,2,0,0,1-2-2V90.8a2,2,0,0,1,.482-1.3L68.149,66.553a9.184,9.184,0,0,0,2.209-5.974V26.521a4.521,4.521,0,1,0-9.042,0V48.189a2,2,0,0,1-4,0V26.521a8.521,8.521,0,1,1,17.042,0V60.579a13.187,13.187,0,0,1-3.172,8.577L52,91.539v6.713A2,2,0,0,1,50,100.252Z" transform="translate(39.431 11.684)"></path><path id="Path_183" data-name="Path 183" d="M38,88.63a2,2,0,0,1-2-2V61.45a13.179,13.179,0,0,1,3.859-9.317L58.012,33.98A8.587,8.587,0,1,1,70.156,46.124L56.182,60.1a2,2,0,0,1-2.828-2.828L67.328,43.3a4.587,4.587,0,1,0-6.487-6.487L42.687,54.961A9.179,9.179,0,0,0,40,61.45V86.63A2,2,0,0,1,38,88.63Z" transform="translate(29.073 23.305)"></path><path id="Path_184" data-name="Path 184" d="M31.967.994A16,16,0,0,1,44.089,6.578,15.975,15.975,0,0,1,56.195,1.023h0A15.946,15.946,0,0,1,66.858,28.851L45.5,50.264a2,2,0,0,1-2.832,0L21.312,28.851A15.965,15.965,0,0,1,31.967.994ZM44.085,12.027h0a2,2,0,0,1-1.733-1.007A11.964,11.964,0,1,0,24.016,25.9q.045.04.088.083L44.085,46.019,64.067,25.985q.043-.044.089-.084A11.959,11.959,0,1,0,45.819,11.025,2,2,0,0,1,44.085,12.027Z" transform="translate(11.809 -2.994)"></path></g></svg>