<svg xmlns="http://www.w3.org/2000/svg" width="115.788" height="112.062" viewBox="0 0 115.788 112.062"><g id="networking" transform="translate(2 2)"><path id="Path_176" data-name="Path 176" d="M28,0H91.347a2,2,0,0,1,2,2V39.263a2,2,0,0,1-2,2H47.333L29.249,55.73A2,2,0,0,1,26,54.168V2A2,2,0,0,1,28,0ZM89.347,4H30V50.007L45.382,37.7a2,2,0,0,1,1.249-.438H89.347Z" transform="translate(20.442 -2)"></path><path id="Ellipse_10" data-name="Ellipse 10" d="M11-2a12.675,12.675,0,0,1,9.223,3.986A13.684,13.684,0,0,1,24,11.5a13.684,13.684,0,0,1-3.777,9.514,12.665,12.665,0,0,1-18.447,0A13.684,13.684,0,0,1-2,11.5,13.684,13.684,0,0,1,1.777,1.986,12.675,12.675,0,0,1,11-2Zm0,23a9.271,9.271,0,0,0,9-9.5A9.271,9.271,0,0,0,11,2a9.271,9.271,0,0,0-9,9.5A9.271,9.271,0,0,0,11,21Z" transform="translate(78.577 51.9)"></path><path id="Ellipse_11" data-name="Ellipse 11" d="M11-2a12.675,12.675,0,0,1,9.223,3.986A13.684,13.684,0,0,1,24,11.5a13.684,13.684,0,0,1-3.777,9.514,12.665,12.665,0,0,1-18.447,0A13.684,13.684,0,0,1-2,11.5,13.684,13.684,0,0,1,1.777,1.986,12.675,12.675,0,0,1,11-2Zm0,23a9.271,9.271,0,0,0,9-9.5A9.271,9.271,0,0,0,11,2a9.271,9.271,0,0,0-9,9.5A9.271,9.271,0,0,0,11,21Z" transform="translate(11.577 51.9)"></path><path id="Path_177" data-name="Path 177" d="M46.715,72.358H2a2,2,0,0,1-2-2V59.2a9.445,9.445,0,0,1,4.6-8.122A38.187,38.187,0,0,1,24.358,46a38.413,38.413,0,0,1,19.711,5.1,9.451,9.451,0,0,1,4.646,8.147V70.358A2,2,0,0,1,46.715,72.358ZM4,68.358H44.715V59.244a5.418,5.418,0,0,0-2.683-4.7A34.417,34.417,0,0,0,24.358,50a34.2,34.2,0,0,0-17.7,4.515A5.413,5.413,0,0,0,4,59.2Z" transform="translate(-2 37.704)"></path><path id="Path_178" data-name="Path 178" d="M82.715,72.358H38a2,2,0,0,1-2-2V59.2a9.445,9.445,0,0,1,4.6-8.122A38.187,38.187,0,0,1,60.358,46a38.413,38.413,0,0,1,19.711,5.1,9.451,9.451,0,0,1,4.646,8.147V70.358A2,2,0,0,1,82.715,72.358ZM40,68.358H80.715V59.244a5.418,5.418,0,0,0-2.683-4.7A34.417,34.417,0,0,0,60.358,50a34.2,34.2,0,0,0-17.7,4.515A5.413,5.413,0,0,0,40,59.2Z" transform="translate(29.073 37.704)"></path></g></svg>