<svg xmlns="http://www.w3.org/2000/svg" width="116" height="116" viewBox="0 0 116 116"><g id="token" transform="translate(-1384 -2651)"><g id="Group_32" data-name="Group 32" transform="translate(0 -5)"><g id="gold-coin" transform="translate(1384 2656)"><path id="Path_219" data-name="Path 219" d="M42.3,17.4a2,2,0,0,1,1.794,1.115l6.425,13.021,14.369,2.088A2,2,0,0,1,66,37.03L55.6,47.164l2.454,14.312a2,2,0,0,1-2.9,2.108L42.3,56.827,29.449,63.584a2,2,0,0,1-2.9-2.108L29,47.164,18.6,37.03a2,2,0,0,1,1.108-3.411l14.369-2.088L40.506,18.51A2,2,0,0,1,42.3,17.4Zm18,19.6L48.9,35.338A2,2,0,0,1,47.4,34.244L42.3,23.914,37.2,34.244A2,2,0,0,1,35.7,35.338L24.3,36.994l8.248,8.039a2,2,0,0,1,.575,1.77L31.175,58.157,41.369,52.8a2,2,0,0,1,1.861,0l10.195,5.36L51.479,46.8a2,2,0,0,1,.575-1.77Z" transform="translate(15.45 14.931)"></path><path id="Ellipse_18" data-name="Ellipse 18" d="M56-2A57.738,57.738,0,0,1,88.43,7.907a58.164,58.164,0,0,1,21.012,25.516,57.926,57.926,0,0,1-5.348,55.007,58.164,58.164,0,0,1-25.516,21.012,57.926,57.926,0,0,1-55.007-5.348A58.164,58.164,0,0,1,2.559,78.577,57.926,57.926,0,0,1,7.907,23.57,58.164,58.164,0,0,1,33.423,2.559,57.639,57.639,0,0,1,56-2Zm0,112a53.739,53.739,0,0,0,30.191-9.221,54.163,54.163,0,0,0,19.567-23.76,53.926,53.926,0,0,0-4.978-51.209A54.163,54.163,0,0,0,77.019,6.243a53.926,53.926,0,0,0-51.209,4.978A54.163,54.163,0,0,0,6.243,34.981a53.926,53.926,0,0,0,4.978,51.209,54.164,54.164,0,0,0,23.76,19.567A53.66,53.66,0,0,0,56,110Z" transform="translate(2 2)"></path><path id="Line_23" data-name="Line 23" d="M0,7A2,2,0,0,1-2,5V0A2,2,0,0,1,0-2,2,2,0,0,1,2,0V5A2,2,0,0,1,0,7Z" transform="translate(58 84)"></path><path id="Line_24" data-name="Line 24" d="M5.3,3.723a2,2,0,0,1-.618-.1L-.618,1.9A2,2,0,0,1-1.9-.618,2,2,0,0,1,.618-1.9L5.92-.179a2,2,0,0,1-.618,3.9Z" transform="translate(82.494 65.789)"></path><path id="Line_25" data-name="Line 25" d="M0,6.51a1.991,1.991,0,0,1-1.174-.382,2,2,0,0,1-.443-2.794l3.276-4.51a2,2,0,0,1,2.794-.443,2,2,0,0,1,.443,2.794L1.618,5.686A2,2,0,0,1,0,6.51Z" transform="translate(73.042 32.192)"></path><path id="Line_26" data-name="Line 26" d="M3.278,6.51a2,2,0,0,1-1.62-.825l-3.276-4.51a2,2,0,0,1,.443-2.794,2,2,0,0,1,2.794.443l3.276,4.51A2,2,0,0,1,3.278,6.51Z" transform="translate(39.182 32.192)"></path><path id="Line_27" data-name="Line 27" d="M0,3.723A2,2,0,0,1-1.9,2.341,2,2,0,0,1-.618-.179L4.684-1.9A2,2,0,0,1,7.2-.618,2,2,0,0,1,5.92,1.9L.618,3.625A2,2,0,0,1,0,3.723Z" transform="translate(27.704 65.789)"></path><path id="Ellipse_19" data-name="Ellipse 19" d="M44.5-2A46.512,46.512,0,0,1,62.6,87.345,46.512,46.512,0,0,1,26.4,1.655,46.211,46.211,0,0,1,44.5-2Zm0,89A42.512,42.512,0,0,0,61.042,5.339,42.512,42.512,0,0,0,27.958,83.661,42.232,42.232,0,0,0,44.5,87Z" transform="translate(14 14)"></path></g></g></g></svg>