<svg xmlns="http://www.w3.org/2000/svg" width="104.611" height="116" viewBox="0 0 104.611 116"><g id="training" transform="translate(2 2.1)"><path id="Ellipse_12" data-name="Ellipse 12" d="M11.5-2a13.684,13.684,0,0,1,9.514,3.777,12.665,12.665,0,0,1,0,18.447A13.684,13.684,0,0,1,11.5,24a13.684,13.684,0,0,1-9.514-3.777,12.665,12.665,0,0,1,0-18.447A13.684,13.684,0,0,1,11.5-2Zm0,22A9.271,9.271,0,0,0,21,11a9.271,9.271,0,0,0-9.5-9A9.271,9.271,0,0,0,2,11,9.271,9.271,0,0,0,11.5,20Z" transform="translate(5.342 -0.1)"></path><path id="Path_196" data-name="Path 196" d="M87.484,80.8H29.726a2,2,0,0,1,0-4H85.484V10H26a2,2,0,1,1,0-4H87.484a2,2,0,0,1,2,2V78.8A2,2,0,0,1,87.484,80.8Z" transform="translate(13.127 3.179)"></path><path id="Line_17" data-name="Line 17" d="M19,32a2,2,0,0,1-1.692-.93l-19-30a2,2,0,0,1,.62-2.76,2,2,0,0,1,2.76.62l19,30A2,2,0,0,1,19,32Z" transform="translate(74.342 81.9)"></path><path id="Path_197" data-name="Path 197" d="M16.179,17H71.031a6.77,6.77,0,0,1,6.744,7.354q0,.035-.007.07a6.967,6.967,0,0,1-6.716,6.12L38.674,32.086v61.44a7.589,7.589,0,0,1-7.589,7.6c-.134,0-.271,0-.405-.011l-.069,0A7.8,7.8,0,0,1,23.5,93.191V63.852H18.179V93.525a7.589,7.589,0,0,1-7.589,7.6c-.134,0-.271,0-.405-.011l-.069,0A7.8,7.8,0,0,1,3,93.191V30.179A13.179,13.179,0,0,1,16.179,17Zm57.614,6.974A2.77,2.77,0,0,0,71.031,21v0H16.179A9.179,9.179,0,0,0,7,30.179V93.211q0,.021,0,.042a3.814,3.814,0,0,0,3.433,3.866,3.589,3.589,0,0,0,3.746-3.591V61.852a2,2,0,0,1,2-2H25.5a2,2,0,0,1,2,2V93.211q0,.021,0,.042a3.814,3.814,0,0,0,3.433,3.866,3.589,3.589,0,0,0,3.746-3.591V30.179a2,2,0,0,1,1.9-2l34.3-1.634.045,0a2.967,2.967,0,0,0,2.866-2.572Z" transform="translate(-4.999 12.673)"></path><path id="Line_18" data-name="Line 18" d="M0,11A2,2,0,0,1-2,9V0A2,2,0,0,1,0-2,2,2,0,0,1,2,0V9A2,2,0,0,1,0,11Z" transform="translate(56.342 1.9)"></path></g></svg>