<svg xmlns="http://www.w3.org/2000/svg" width="115.788" height="104.709" viewBox="0 0 115.788 104.709"><g id="working-space" transform="translate(2 2.1)"><path id="Line_20" data-name="Line 20" d="M0,15a2,2,0,0,1-2-2V0A2,2,0,0,1,0-2,2,2,0,0,1,2,0V13A2,2,0,0,1,0,15Z" transform="translate(55.545 55.9)"></path><path id="Rectangle_133" data-name="Rectangle 133" d="M0-2H89a2,2,0,0,1,2,2V56a2,2,0,0,1-2,2H0a2,2,0,0,1-2-2V0A2,2,0,0,1,0-2ZM87,2H2V54H87Z" transform="translate(11.545 -0.1)"></path><path id="Line_21" data-name="Line 21" d="M37,2H0A2,2,0,0,1-2,0,2,2,0,0,1,0-2H37a2,2,0,0,1,2,2A2,2,0,0,1,37,2Z" transform="translate(37.545 68.9)"></path><path id="Path_205" data-name="Path 205" d="M113.788,71.358a2,2,0,0,1-2-2V49H4V69.358a2,2,0,1,1-4,0V47a2,2,0,0,1,2-2H113.788a2,2,0,0,1,2,2V69.358A2,2,0,0,1,113.788,71.358Z" transform="translate(-2 31.252)"></path></g></svg>